Format                                   : AVI
Format/Info                              : Audio Video Interleave
Format profile                           : OpenDML
Format settings                          : rec
File size                                : 2.05 GiB
Duration                                 : 2h 13mn
Overall bit rate                         : 2 199 Kbps
Writing application                      : AVI-Mux GUI 1.17.8.3, Feb 16 201019:42:50

Video
ID                                       : 0
Format                                   : MPEG-4 Visual
Format profile                           : Advanced Simple@L5
Format settings, BVOP                    : 2
Format settings, QPel                    : No
Format settings, GMC                     : No warppoints
Format settings, Matrix                  : Default (MPEG)
Muxing mode                              : Packed bitstream
Codec ID                                 : XVID
Codec ID/Hint                            : XviD
Duration                                 : 2h 13mn
Bit rate                                 : 2 000 Kbps
Width                                    : 720 pixels
Height                                   : 304 pixels
Display aspect ratio                     : 2.35:1
Frame rate                               : 29.970 fps
Color space                              : YUV
Chroma subsampling                       : 4:2:0
Bit depth                                : 8 bits
Scan type                                : Progressive
Compression mode                         : Lossy
Bits/(Pixel*Frame)                       : 0.305
Stream size                              : 1.86 GiB (91%)
Writing library                          : XviD 73

Audio
ID                                       : 1
Format                                   : AC-3
Format/Info                              : Audio Coding 3
Mode extension                           : CM (complete main)
Format settings, Endianness              : Big
Codec ID                                 : 2000
Duration                                 : 2h 13mn
Bit rate mode                            : Constant
Bit rate                                 : 192 Kbps
Channel(s)                               : 2 channels
Channel positions                        : Front: L R
Sampling rate                            : 48.0 KHz
Bit depth                                : 16 bits
Compression mode                         : Lossy
Stream size                              : 183 MiB (9%)
Alignment                                : Aligned on interleaves
Interleave, duration                     : 64 ms (1.92 video frames)
Interleave, preload duration             : 192 ms
Title                                    : Iron Man 2013 CAM FULL-AUDIO

NOTES:

Most is in CAM english audio and rest is in some other foriegn language

Screens:
 
http://i.imgur.com/T8VBZSo.png 
http://i.imgur.com/W56igLA.png 
http://i.imgur.com/f3iMdYu.png 
http://i.imgur.com/czYDF6N.png
